<mxfile host="app.diagrams.net" modified="2021-11-25T06:40:22.720Z" agent="5.0 (X11; Linux x86_64) AppleWebKit/537.36 (KHTML, like Gecko) Chrome/95.0.4638.54 Safari/537.36" etag="e7dg4iMbXSKWi26KU-xP" version="15.8.3" type="github">
  <diagram name="Page-1" id="52a04d89-c75d-2922-d76d-85b35f80e030">
    <mxGraphModel dx="1376" dy="805" grid="1" gridSize="10" guides="1" tooltips="1" connect="1" arrows="1" fold="1" page="1" pageScale="1" pageWidth="1100" pageHeight="850" background="#182E3E" math="0" shadow="0">
      <root>
        <mxCell id="0" />
        <mxCell id="1" parent="0" />
        <mxCell id="ei6QbALX7-aPUwXH-gwo-11" style="edgeStyle=orthogonalEdgeStyle;curved=0;rounded=1;sketch=0;orthogonalLoop=1;jettySize=auto;html=1;exitX=1;exitY=0.5;exitDx=0;exitDy=0;entryX=0.215;entryY=-0.007;entryDx=0;entryDy=0;entryPerimeter=0;fontColor=#FFFFFF;strokeColor=#FFFFFF;" edge="1" parent="1" source="ei6QbALX7-aPUwXH-gwo-1" target="ei6QbALX7-aPUwXH-gwo-5">
          <mxGeometry relative="1" as="geometry" />
        </mxCell>
        <mxCell id="ei6QbALX7-aPUwXH-gwo-1" value="&lt;font style=&quot;font-size: 25px&quot;&gt;GLogin&lt;/font&gt;" style="rounded=0;whiteSpace=wrap;html=1;sketch=0;fontColor=#1A1A1A;strokeColor=#FFFFFF;fillColor=#EEEEEE;labelBackgroundColor=none;fontStyle=0" vertex="1" parent="1">
          <mxGeometry x="40" y="40" width="120" height="60" as="geometry" />
        </mxCell>
        <mxCell id="ei6QbALX7-aPUwXH-gwo-22" style="edgeStyle=orthogonalEdgeStyle;curved=0;rounded=1;sketch=0;orthogonalLoop=1;jettySize=auto;html=1;exitX=0.5;exitY=1;exitDx=0;exitDy=0;entryX=0;entryY=0.5;entryDx=0;entryDy=0;fontColor=#FFFFFF;strokeColor=#FFFFFF;" edge="1" parent="1" source="ei6QbALX7-aPUwXH-gwo-3" target="ei6QbALX7-aPUwXH-gwo-12">
          <mxGeometry relative="1" as="geometry" />
        </mxCell>
        <mxCell id="ei6QbALX7-aPUwXH-gwo-3" value="&lt;font style=&quot;font-size: 26px&quot;&gt;ROR&lt;/font&gt;" style="rounded=0;whiteSpace=wrap;html=1;sketch=0;fontColor=#1A1A1A;strokeColor=#FFFFFF;fillColor=#EEEEEE;" vertex="1" parent="1">
          <mxGeometry x="240" y="40" width="120" height="60" as="geometry" />
        </mxCell>
        <mxCell id="ei6QbALX7-aPUwXH-gwo-20" style="edgeStyle=orthogonalEdgeStyle;curved=0;rounded=1;sketch=0;orthogonalLoop=1;jettySize=auto;html=1;exitX=1;exitY=0.5;exitDx=0;exitDy=0;entryX=0.5;entryY=0;entryDx=0;entryDy=0;fontColor=#FFFFFF;strokeColor=#FFFFFF;" edge="1" parent="1" source="ei6QbALX7-aPUwXH-gwo-4" target="ei6QbALX7-aPUwXH-gwo-12">
          <mxGeometry relative="1" as="geometry" />
        </mxCell>
        <mxCell id="ei6QbALX7-aPUwXH-gwo-4" value="&lt;font style=&quot;font-size: 30px&quot;&gt;OMS&lt;/font&gt;" style="rounded=0;whiteSpace=wrap;html=1;sketch=0;fontColor=#1A1A1A;strokeColor=#FFFFFF;fillColor=#EEEEEE;" vertex="1" parent="1">
          <mxGeometry x="400" y="40" width="120" height="60" as="geometry" />
        </mxCell>
        <mxCell id="ei6QbALX7-aPUwXH-gwo-9" style="edgeStyle=orthogonalEdgeStyle;curved=0;rounded=1;sketch=0;orthogonalLoop=1;jettySize=auto;html=1;exitX=0.5;exitY=1;exitDx=0;exitDy=0;entryX=0.5;entryY=0;entryDx=0;entryDy=0;fontColor=#FFFFFF;strokeColor=#FFFFFF;" edge="1" parent="1" source="ei6QbALX7-aPUwXH-gwo-5" target="ei6QbALX7-aPUwXH-gwo-8">
          <mxGeometry relative="1" as="geometry" />
        </mxCell>
        <mxCell id="ei6QbALX7-aPUwXH-gwo-5" value="&lt;font style=&quot;font-size: 21px&quot;&gt;Kafka MessageBus&lt;/font&gt;" style="rounded=0;whiteSpace=wrap;html=1;sketch=0;fontColor=#1A1A1A;strokeColor=#FFFFFF;fillColor=#EEEEEE;" vertex="1" parent="1">
          <mxGeometry x="160" y="290" width="200" height="140" as="geometry" />
        </mxCell>
        <mxCell id="ei6QbALX7-aPUwXH-gwo-19" style="edgeStyle=orthogonalEdgeStyle;curved=0;rounded=1;sketch=0;orthogonalLoop=1;jettySize=auto;html=1;exitX=1;exitY=0.5;exitDx=0;exitDy=0;entryX=0;entryY=0.5;entryDx=0;entryDy=0;fontColor=#FFFFFF;strokeColor=#FFFFFF;" edge="1" parent="1" source="ei6QbALX7-aPUwXH-gwo-8" target="ei6QbALX7-aPUwXH-gwo-13">
          <mxGeometry relative="1" as="geometry">
            <Array as="points">
              <mxPoint x="440" y="540" />
              <mxPoint x="440" y="340" />
            </Array>
          </mxGeometry>
        </mxCell>
        <mxCell id="ei6QbALX7-aPUwXH-gwo-8" value="&lt;font style=&quot;font-size: 16px&quot;&gt;Kafka Message Handlers&lt;/font&gt;" style="rounded=0;whiteSpace=wrap;html=1;sketch=0;fontColor=#1A1A1A;strokeColor=#FFFFFF;fillColor=#EEEEEE;" vertex="1" parent="1">
          <mxGeometry x="160" y="510" width="200" height="60" as="geometry" />
        </mxCell>
        <mxCell id="ei6QbALX7-aPUwXH-gwo-23" style="edgeStyle=orthogonalEdgeStyle;curved=0;rounded=1;sketch=0;orthogonalLoop=1;jettySize=auto;html=1;exitX=0.5;exitY=1;exitDx=0;exitDy=0;entryX=0.5;entryY=0;entryDx=0;entryDy=0;fontColor=#FFFFFF;strokeColor=#FFFFFF;" edge="1" parent="1" source="ei6QbALX7-aPUwXH-gwo-12" target="ei6QbALX7-aPUwXH-gwo-13">
          <mxGeometry relative="1" as="geometry" />
        </mxCell>
        <mxCell id="ei6QbALX7-aPUwXH-gwo-28" style="edgeStyle=orthogonalEdgeStyle;curved=0;rounded=1;sketch=0;orthogonalLoop=1;jettySize=auto;html=1;exitX=1;exitY=0.5;exitDx=0;exitDy=0;entryX=1;entryY=0.5;entryDx=0;entryDy=0;fontColor=#FFFFFF;strokeColor=#FFFFFF;" edge="1" parent="1" source="ei6QbALX7-aPUwXH-gwo-12" target="ei6QbALX7-aPUwXH-gwo-17">
          <mxGeometry relative="1" as="geometry" />
        </mxCell>
        <mxCell id="ei6QbALX7-aPUwXH-gwo-12" value="&lt;font style=&quot;font-size: 20px&quot;&gt;Mysql DB&lt;/font&gt;" style="rounded=0;whiteSpace=wrap;html=1;sketch=0;fontColor=#1A1A1A;strokeColor=#FFFFFF;fillColor=#EEEEEE;" vertex="1" parent="1">
          <mxGeometry x="680" y="200" width="120" height="60" as="geometry" />
        </mxCell>
        <mxCell id="ei6QbALX7-aPUwXH-gwo-24" style="edgeStyle=orthogonalEdgeStyle;curved=0;rounded=1;sketch=0;orthogonalLoop=1;jettySize=auto;html=1;exitX=1;exitY=0.5;exitDx=0;exitDy=0;entryX=1;entryY=0.5;entryDx=0;entryDy=0;fontColor=#FFFFFF;strokeColor=#FFFFFF;" edge="1" parent="1" source="ei6QbALX7-aPUwXH-gwo-13" target="ei6QbALX7-aPUwXH-gwo-14">
          <mxGeometry relative="1" as="geometry">
            <Array as="points">
              <mxPoint x="950" y="340" />
              <mxPoint x="950" y="470" />
            </Array>
          </mxGeometry>
        </mxCell>
        <mxCell id="ei6QbALX7-aPUwXH-gwo-13" value="&lt;font style=&quot;font-size: 16px&quot;&gt;ClickHouse DB&lt;/font&gt;" style="rounded=0;whiteSpace=wrap;html=1;sketch=0;fontColor=#1A1A1A;strokeColor=#FFFFFF;fillColor=#EEEEEE;" vertex="1" parent="1">
          <mxGeometry x="680" y="310" width="120" height="60" as="geometry" />
        </mxCell>
        <mxCell id="ei6QbALX7-aPUwXH-gwo-25" style="edgeStyle=orthogonalEdgeStyle;curved=0;rounded=1;sketch=0;orthogonalLoop=1;jettySize=auto;html=1;exitX=0;exitY=0.5;exitDx=0;exitDy=0;entryX=1;entryY=0.5;entryDx=0;entryDy=0;fontColor=#FFFFFF;strokeColor=#FFFFFF;" edge="1" parent="1" source="ei6QbALX7-aPUwXH-gwo-14" target="ei6QbALX7-aPUwXH-gwo-15">
          <mxGeometry relative="1" as="geometry" />
        </mxCell>
        <mxCell id="ei6QbALX7-aPUwXH-gwo-14" value="&lt;font style=&quot;font-size: 16px&quot;&gt;Linked&lt;br&gt;tables&lt;/font&gt;" style="rounded=0;whiteSpace=wrap;html=1;sketch=0;fontColor=#1A1A1A;strokeColor=#FFFFFF;fillColor=#EEEEEE;" vertex="1" parent="1">
          <mxGeometry x="840" y="440" width="70" height="60" as="geometry" />
        </mxCell>
        <mxCell id="ei6QbALX7-aPUwXH-gwo-26" style="edgeStyle=orthogonalEdgeStyle;curved=0;rounded=1;sketch=0;orthogonalLoop=1;jettySize=auto;html=1;exitX=0;exitY=0.5;exitDx=0;exitDy=0;entryX=1;entryY=0.5;entryDx=0;entryDy=0;fontColor=#FFFFFF;strokeColor=#FFFFFF;" edge="1" parent="1" source="ei6QbALX7-aPUwXH-gwo-15" target="ei6QbALX7-aPUwXH-gwo-16">
          <mxGeometry relative="1" as="geometry" />
        </mxCell>
        <mxCell id="ei6QbALX7-aPUwXH-gwo-15" value="r_ prefixed&lt;br&gt;tables" style="rounded=0;whiteSpace=wrap;html=1;sketch=0;fontColor=#1A1A1A;strokeColor=#FFFFFF;fillColor=#EEEEEE;" vertex="1" parent="1">
          <mxGeometry x="730" y="440" width="70" height="60" as="geometry" />
        </mxCell>
        <mxCell id="ei6QbALX7-aPUwXH-gwo-30" style="edgeStyle=orthogonalEdgeStyle;curved=0;rounded=1;sketch=0;orthogonalLoop=1;jettySize=auto;html=1;exitX=0;exitY=0.5;exitDx=0;exitDy=0;fontColor=#FFFFFF;strokeColor=#FFFFFF;entryX=-0.011;entryY=0.6;entryDx=0;entryDy=0;entryPerimeter=0;" edge="1" parent="1" source="ei6QbALX7-aPUwXH-gwo-16" target="ei6QbALX7-aPUwXH-gwo-17">
          <mxGeometry relative="1" as="geometry">
            <mxPoint x="480" y="720" as="targetPoint" />
            <Array as="points">
              <mxPoint x="480" y="470" />
              <mxPoint x="480" y="726" />
            </Array>
          </mxGeometry>
        </mxCell>
        <mxCell id="ei6QbALX7-aPUwXH-gwo-16" value="regular tables" style="rounded=0;whiteSpace=wrap;html=1;sketch=0;fontColor=#1A1A1A;strokeColor=#FFFFFF;fillColor=#EEEEEE;" vertex="1" parent="1">
          <mxGeometry x="610" y="440" width="70" height="60" as="geometry" />
        </mxCell>
        <mxCell id="ei6QbALX7-aPUwXH-gwo-32" style="edgeStyle=orthogonalEdgeStyle;curved=0;rounded=1;sketch=0;orthogonalLoop=1;jettySize=auto;html=1;exitX=0.5;exitY=0;exitDx=0;exitDy=0;entryX=0.5;entryY=1;entryDx=0;entryDy=0;fontColor=#FFFFFF;strokeColor=#FFFFFF;" edge="1" parent="1" source="ei6QbALX7-aPUwXH-gwo-17" target="ei6QbALX7-aPUwXH-gwo-18">
          <mxGeometry relative="1" as="geometry" />
        </mxCell>
        <mxCell id="ei6QbALX7-aPUwXH-gwo-17" value="&lt;font style=&quot;font-size: 35px&quot;&gt;DASHBOARD&lt;/font&gt;" style="rounded=0;whiteSpace=wrap;html=1;sketch=0;fontColor=#1A1A1A;strokeColor=#FFFFFF;fillColor=#EEEEEE;" vertex="1" parent="1">
          <mxGeometry x="560" y="660" width="440" height="110" as="geometry" />
        </mxCell>
        <mxCell id="ei6QbALX7-aPUwXH-gwo-18" value="&lt;font style=&quot;font-size: 22px&quot;&gt;Widgets&lt;/font&gt;" style="rounded=0;whiteSpace=wrap;html=1;sketch=0;fontColor=#1A1A1A;strokeColor=#FFFFFF;fillColor=#EEEEEE;" vertex="1" parent="1">
          <mxGeometry x="560" y="580" width="440" height="40" as="geometry" />
        </mxCell>
      </root>
    </mxGraphModel>
  </diagram>
</mxfile>
